<mxfile host="app.diagrams.net" modified="2022-12-21T15:43:16.685Z" agent="5.0 (Macintosh; Intel Mac OS X 10_15_7) AppleWebKit/537.36 (KHTML, like Gecko) Chrome/108.0.0.0 Safari/537.36" version="20.7.4" etag="n098pMqw0DA_fb6DBaVc" type="github">
  <diagram id="ippgkNu-CYPZNg6K2KQp" name="第 1 页">
    <mxGraphModel dx="2261" dy="787" grid="1" gridSize="10" guides="1" tooltips="1" connect="1" arrows="1" fold="1" page="1" pageScale="1" pageWidth="827" pageHeight="1169" math="0" shadow="0">
      <root>
        <mxCell id="0" />
        <mxCell id="1" parent="0" />
        <mxCell id="IkH5OImtl__l8nd6yJED-3" value="" style="rounded=0;whiteSpace=wrap;html=1;" vertex="1" parent="1">
          <mxGeometry x="240" y="80" width="400" height="360" as="geometry" />
        </mxCell>
        <mxCell id="IkH5OImtl__l8nd6yJED-4" value="" style="rounded=0;whiteSpace=wrap;html=1;fillColor=#f8cecc;strokeColor=#b85450;" vertex="1" parent="1">
          <mxGeometry x="240" y="80" width="120" height="360" as="geometry" />
        </mxCell>
        <mxCell id="IkH5OImtl__l8nd6yJED-5" value="" style="rounded=0;whiteSpace=wrap;html=1;fillColor=#dae8fc;strokeColor=#6c8ebf;" vertex="1" parent="1">
          <mxGeometry x="360" y="80" width="280" height="200" as="geometry" />
        </mxCell>
        <mxCell id="IkH5OImtl__l8nd6yJED-6" value="" style="rounded=0;whiteSpace=wrap;html=1;fillColor=#d5e8d4;strokeColor=#82b366;" vertex="1" parent="1">
          <mxGeometry x="360" y="280" width="280" height="160" as="geometry" />
        </mxCell>
        <mxCell id="IkH5OImtl__l8nd6yJED-24" style="edgeStyle=orthogonalEdgeStyle;rounded=0;orthogonalLoop=1;jettySize=auto;html=1;exitX=0.5;exitY=0;exitDx=0;exitDy=0;entryX=0.5;entryY=0;entryDx=0;entryDy=0;fillColor=#f8cecc;strokeColor=#b85450;" edge="1" parent="1" source="IkH5OImtl__l8nd6yJED-7" target="IkH5OImtl__l8nd6yJED-8">
          <mxGeometry relative="1" as="geometry">
            <Array as="points">
              <mxPoint x="300" y="390" />
              <mxPoint x="350" y="390" />
              <mxPoint x="350" y="120" />
              <mxPoint x="420" y="120" />
            </Array>
          </mxGeometry>
        </mxCell>
        <mxCell id="IkH5OImtl__l8nd6yJED-7" value="cat = 0x1111" style="rounded=0;whiteSpace=wrap;html=1;fillColor=#ffe6cc;strokeColor=#d79b00;" vertex="1" parent="1">
          <mxGeometry x="250" y="400" width="100" height="30" as="geometry" />
        </mxCell>
        <mxCell id="IkH5OImtl__l8nd6yJED-8" value="" style="rounded=0;whiteSpace=wrap;html=1;" vertex="1" parent="1">
          <mxGeometry x="370" y="140" width="100" height="130" as="geometry" />
        </mxCell>
        <mxCell id="IkH5OImtl__l8nd6yJED-9" value="0x2222" style="rounded=0;whiteSpace=wrap;html=1;fillColor=#f8cecc;strokeColor=#b85450;" vertex="1" parent="1">
          <mxGeometry x="380" y="150" width="80" height="30" as="geometry" />
        </mxCell>
        <mxCell id="IkH5OImtl__l8nd6yJED-10" value="15" style="rounded=0;whiteSpace=wrap;html=1;fillColor=#f8cecc;strokeColor=#b85450;" vertex="1" parent="1">
          <mxGeometry x="380" y="190" width="80" height="30" as="geometry" />
        </mxCell>
        <mxCell id="IkH5OImtl__l8nd6yJED-11" value="0x3333" style="rounded=0;whiteSpace=wrap;html=1;fillColor=#f8cecc;strokeColor=#b85450;" vertex="1" parent="1">
          <mxGeometry x="380" y="230" width="80" height="30" as="geometry" />
        </mxCell>
        <mxCell id="IkH5OImtl__l8nd6yJED-13" value="堆" style="text;html=1;strokeColor=none;fillColor=none;align=center;verticalAlign=middle;whiteSpace=wrap;rounded=0;" vertex="1" parent="1">
          <mxGeometry x="470" y="80" width="60" height="30" as="geometry" />
        </mxCell>
        <mxCell id="IkH5OImtl__l8nd6yJED-14" value="栈" style="text;html=1;strokeColor=none;fillColor=none;align=center;verticalAlign=middle;whiteSpace=wrap;rounded=0;" vertex="1" parent="1">
          <mxGeometry x="270" y="80" width="60" height="30" as="geometry" />
        </mxCell>
        <mxCell id="IkH5OImtl__l8nd6yJED-15" value="" style="rounded=0;whiteSpace=wrap;html=1;" vertex="1" parent="1">
          <mxGeometry x="370" y="320" width="100" height="110" as="geometry" />
        </mxCell>
        <mxCell id="IkH5OImtl__l8nd6yJED-17" value="方法区" style="text;html=1;strokeColor=none;fillColor=none;align=center;verticalAlign=middle;whiteSpace=wrap;rounded=0;" vertex="1" parent="1">
          <mxGeometry x="470" y="280" width="60" height="30" as="geometry" />
        </mxCell>
        <mxCell id="IkH5OImtl__l8nd6yJED-12" value="常量池" style="text;html=1;strokeColor=none;fillColor=none;align=center;verticalAlign=middle;whiteSpace=wrap;rounded=0;fontStyle=1" vertex="1" parent="1">
          <mxGeometry x="390" y="320" width="60" height="30" as="geometry" />
        </mxCell>
        <mxCell id="IkH5OImtl__l8nd6yJED-18" value="0x2222" style="rounded=0;whiteSpace=wrap;html=1;fillColor=#f8cecc;strokeColor=#b85450;" vertex="1" parent="1">
          <mxGeometry x="420" y="345" width="40" height="30" as="geometry" />
        </mxCell>
        <mxCell id="IkH5OImtl__l8nd6yJED-19" value="小白" style="rounded=0;whiteSpace=wrap;html=1;fillColor=#ffe6cc;strokeColor=#d79b00;" vertex="1" parent="1">
          <mxGeometry x="380" y="345" width="40" height="30" as="geometry" />
        </mxCell>
        <mxCell id="IkH5OImtl__l8nd6yJED-20" value="0x3333" style="rounded=0;whiteSpace=wrap;html=1;fillColor=#f8cecc;strokeColor=#b85450;" vertex="1" parent="1">
          <mxGeometry x="420" y="390" width="40" height="30" as="geometry" />
        </mxCell>
        <mxCell id="IkH5OImtl__l8nd6yJED-21" value="小黑" style="rounded=0;whiteSpace=wrap;html=1;fillColor=#ffe6cc;strokeColor=#d79b00;" vertex="1" parent="1">
          <mxGeometry x="380" y="390" width="40" height="30" as="geometry" />
        </mxCell>
        <mxCell id="IkH5OImtl__l8nd6yJED-23" style="edgeStyle=orthogonalEdgeStyle;rounded=0;orthogonalLoop=1;jettySize=auto;html=1;exitX=1;exitY=0.5;exitDx=0;exitDy=0;entryX=1;entryY=0.5;entryDx=0;entryDy=0;fillColor=#dae8fc;strokeColor=#6c8ebf;" edge="1" parent="1" source="IkH5OImtl__l8nd6yJED-11" target="IkH5OImtl__l8nd6yJED-20">
          <mxGeometry relative="1" as="geometry" />
        </mxCell>
        <mxCell id="IkH5OImtl__l8nd6yJED-22" style="edgeStyle=orthogonalEdgeStyle;rounded=0;orthogonalLoop=1;jettySize=auto;html=1;exitX=1;exitY=0.5;exitDx=0;exitDy=0;entryX=1;entryY=0.5;entryDx=0;entryDy=0;fillColor=#f8cecc;strokeColor=#b85450;" edge="1" parent="1" source="IkH5OImtl__l8nd6yJED-9" target="IkH5OImtl__l8nd6yJED-18">
          <mxGeometry relative="1" as="geometry">
            <Array as="points">
              <mxPoint x="500" y="165" />
              <mxPoint x="500" y="360" />
            </Array>
          </mxGeometry>
        </mxCell>
        <mxCell id="IkH5OImtl__l8nd6yJED-26" style="edgeStyle=orthogonalEdgeStyle;rounded=0;orthogonalLoop=1;jettySize=auto;html=1;exitX=1;exitY=0.5;exitDx=0;exitDy=0;entryX=0;entryY=0.5;entryDx=0;entryDy=0;" edge="1" parent="1" source="IkH5OImtl__l8nd6yJED-25" target="IkH5OImtl__l8nd6yJED-7">
          <mxGeometry relative="1" as="geometry" />
        </mxCell>
        <mxCell id="IkH5OImtl__l8nd6yJED-25" value="&lt;h1&gt;&lt;span style=&quot;background-color: initial; font-size: 12px; font-weight: normal;&quot;&gt;Cat cat = new Cat();&lt;/span&gt;&lt;br&gt;&lt;/h1&gt;&lt;div&gt;cat.name = &quot;小白&quot;;&lt;/div&gt;&lt;div&gt;&lt;br&gt;&lt;/div&gt;&lt;div&gt;cat.age = 15;&lt;/div&gt;&lt;div&gt;&lt;br&gt;&lt;/div&gt;&lt;div&gt;cat.color = &quot;小黑&quot;;&lt;/div&gt;" style="text;html=1;strokeColor=#82b366;fillColor=#d5e8d4;spacing=5;spacingTop=-20;whiteSpace=wrap;overflow=hidden;rounded=0;" vertex="1" parent="1">
          <mxGeometry x="-40" y="280" width="160" height="160" as="geometry" />
        </mxCell>
      </root>
    </mxGraphModel>
  </diagram>
</mxfile>
